                                                                        S      1
,,10HVUglass v5,10HVUglass v5,7Hunknown,7Hunknown,32,38,7,99,15,,1.,2,2HG      1
MM,1,0.08,15H20220727.101518,0.01,10000.,7Hunknown,7Hunknown,11,0,15H202G      2
20705.032504;                                                           G      3
     186       1                                                00000000D      1
     186            -175       1       0                               0D      2
     514       2                                                00010000D      3
     514                       2       1                               0D      4
     510       4                                                00010000D      5
     510            -175       1       1                               0D      6
     510       5                                                00010000D      7
     510            -175       1       1                               0D      8
     510       6                                                00010000D      9
     510            -175       1       1                               0D     10
     510       7                                                00010000D     11
     510            -175       1       1                               0D     12
     510       8                                                00010000D     13
     510            -175       1       1                               0D     14
     510       9                                                00010000D     15
     510            -175       1       1                               0D     16
     510      10                                                00010000D     17
     510            -175       1       1                               0D     18
     510      11                                                00010000D     19
     510            -175       1       1                               0D     20
     510      12                                                00010000D     21
     510            -175       1       1                               0D     22
     510      13                                                00010000D     23
     510            -175       1       1                               0D     24
     510      14                                                00010000D     25
     510            -175       1       1                               0D     26
     510      15                                                00010000D     27
     510            -175       1       1                               0D     28
     510      16                                                00010000D     29
     510            -175       1       1                               0D     30
     510      17                                                00010000D     31
     510            -175       1       1                               0D     32
     510      18                                                00010000D     33
     510            -175       1       1                               0D     34
     508      19                                                00010000D     35
     508                       1       1                               0D     36
     508      20                                                00010000D     37
     508                       1       1                               0D     38
     508      21                                                00010000D     39
     508                       1       1                               0D     40
     508      22                                                00010000D     41
     508                       1       1                               0D     42
     508      23                                                00010000D     43
     508                       1       1                               0D     44
     508      24                                                00010000D     45
     508                       1       1                               0D     46
     508      25                                                00010000D     47
     508                       1       1                               0D     48
     508      26                                                00010000D     49
     508                       1       1                               0D     50
     508      27                                                00010000D     51
     508                       2       1                               0D     52
     508      29                                                00010000D     53
     508                       1       1                               0D     54
     508      30                                                00010000D     55
     508                       1       1                               0D     56
     508      31                                                00010000D     57
     508                       1       1                               0D     58
     508      32                                                00010000D     59
     508                       1       1                               0D     60
     508      33                                                00010000D     61
     508                       1       1                               0D     62
     508      34                                                00010000D     63
     508                       2       1                               0D     64
     508      36                                                00010000D     65
     508                       1       1                               0D     66
     126      37                                                00010000D     67
     126       0               2       0                               0D     68
     126      39                                                00010000D     69
     126       0               2       0                               0D     70
     126      41                                                00010000D     71
     126       0               2       0                               0D     72
     126      43                                                00010000D     73
     126       0               2       0                               0D     74
     126      45                                                00010000D     75
     126       0               3       0                               0D     76
     126      48                                                00010000D     77
     126       0               2       0                               0D     78
     126      50                                                00010000D     79
     126       0               3       0                               0D     80
     126      53                                                00010000D     81
     126       0               2       0                               0D     82
     126      55                                                00010000D     83
     126       0               2       0                               0D     84
     126      57                                                00010000D     85
     126       0               2       0                               0D     86
     126      59                                                00010000D     87
     126       0               3       0                               0D     88
     126      62                                                00010000D     89
     126       0               2       0                               0D     90
     126      64                                                00010000D     91
     126       0               3       0                               0D     92
     126      67                                                00010000D     93
     126       0               3       0                               0D     94
     126      70                                                00010000D     95
     126       0               3       0                               0D     96
     126      73                                                00010000D     97
     126       0               2       0                               0D     98
     126      75                                                00010000D     99
     126       0               2       0                               0D    100
     126      77                                                00010000D    101
     126       0               2       0                               0D    102
     126      79                                                00010000D    103
     126       0               2       0                               0D    104
     126      81                                                00010000D    105
     126       0               3       0                               0D    106
     126      84                                                00010000D    107
     126       0               3       0                               0D    108
     126      87                                                00010000D    109
     126       0               2       0                               0D    110
     126      89                                                00010000D    111
     126       0               2       0                               0D    112
     126      91                                                00010000D    113
     126       0               2       0                               0D    114
     126      93                                                00010000D    115
     126       0               2       0                               0D    116
     126      95                                                00010000D    117
     126       0               2       0                               0D    118
     126      97                                                00010000D    119
     126       0               2       0                               0D    120
     126      99                                                00010000D    121
     126       0               2       0                               0D    122
     126     101                                                00010000D    123
     126       0               2       0                               0D    124
     126     103                                                00010000D    125
     126       0               2       0                               0D    126
     126     105                                                00010000D    127
     126       0               2       0                               0D    128
     126     107                                                00010000D    129
     126       0               2       0                               0D    130
     126     109                                                00010000D    131
     126       0               2       0                               0D    132
     126     111                                                00010000D    133
     126       0               2       0                               0D    134
     126     113                                                00010000D    135
     126       0               2       0                               0D    136
     126     115                                                00010000D    137
     126       0               2       0                               0D    138
     128     117                                                00010000D    139
     128       0    -175       3       0                               0D    140
     128     120                                                00010000D    141
     128       0    -175       5       0                               0D    142
     128     125                                                00010000D    143
     128       0    -175       3       0                               0D    144
     128     128                                                00010000D    145
     128       0    -175       6       0                               0D    146
     128     134                                                00010000D    147
     128       0    -175       6       0                               0D    148
     128     140                                                00010000D    149
     128       0    -175       3       0                               0D    150
     128     143                                                00010000D    151
     128       0    -175       6       0                               0D    152
     128     149                                                00010000D    153
     128       0    -175       3       0                               0D    154
     128     152                                                00010000D    155
     128       0    -175       3       0                               0D    156
     128     155                                                00010000D    157
     128       0    -175       3       0                               0D    158
     128     158                                                00010000D    159
     128       0    -175       3       0                               0D    160
     128     161                                                00010000D    161
     128       0    -175       3       0                               0D    162
     128     164                                                00010000D    163
     128       0    -175       4       0                               0D    164
     128     168                                                00010000D    165
     128       0    -175       3       0                               0D    166
     128     171                                                00010000D    167
     128       0    -175       3       0                               0D    168
     502     174                                                00010000D    169
     502                       5       1                               0D    170
     504     179                                                00010001D    171
     504                      10       1                               0D    172
     406     189                                                00000000D    173
     406                       1      15                               0D    174
     314     190                                                00000200D    175
     314                       2       0                               0D    176
186,3,1,0,0,1,173;                                                     1P      1
514,15,5,1,7,1,9,1,11,1,13,1,15,1,17,1,19,1,21,1,23,1,25,1,27,1,       3P      2
29,1,31,1,33,1;                                                        3P      3
510,139,1,1,35;                                                        5P      4
510,141,1,1,37;                                                        7P      5
510,143,1,1,39;                                                        9P      6
510,145,1,1,41;                                                       11P      7
510,147,1,1,43;                                                       13P      8
510,149,1,1,45;                                                       15P      9
510,151,1,1,47;                                                       17P     10
510,153,1,1,49;                                                       19P     11
510,155,1,1,51;                                                       21P     12
510,157,1,1,53;                                                       23P     13
510,159,1,1,55;                                                       25P     14
510,161,1,1,57;                                                       27P     15
510,163,1,1,59;                                                       29P     16
510,165,2,1,61,63;                                                    31P     17
510,167,1,1,65;                                                       33P     18
508,4,0,171,1,0,0,0,171,2,1,0,0,171,3,0,0,0,171,4,0,0;                35P     19
508,4,0,171,5,0,0,0,171,6,1,0,0,171,7,0,0,0,171,2,0,0;                37P     20
508,4,0,171,8,0,0,0,171,9,1,0,0,171,10,0,0,0,171,6,0,0;               39P     21
508,4,0,171,11,0,0,0,171,12,1,0,0,171,13,0,0,0,171,9,0,0;             41P     22
508,4,0,171,14,0,0,0,171,4,1,0,0,171,15,0,0,0,171,16,0,0;             43P     23
508,4,0,171,17,0,0,0,171,16,1,0,0,171,18,0,0,0,171,19,0,0;            45P     24
508,4,0,171,20,0,0,0,171,19,1,0,0,171,21,0,0,0,171,22,0,0;            47P     25
508,4,0,171,23,0,0,0,171,22,1,0,0,171,24,0,0,0,171,12,0,0;            49P     26
508,8,0,171,13,1,0,0,171,24,1,0,0,171,21,1,0,0,171,18,1,0,0,171,      51P     27
15,1,0,0,171,3,1,0,0,171,7,1,0,0,171,10,1,0;                          51P     28
508,4,0,171,25,0,0,0,171,26,1,0,0,171,27,0,0,0,171,28,0,0;            53P     29
508,4,0,171,29,0,0,0,171,28,1,0,0,171,30,0,0,0,171,31,0,0;            55P     30
508,4,0,171,32,0,0,0,171,31,1,0,0,171,33,0,0,0,171,34,0,0;            57P     31
508,4,0,171,35,0,0,0,171,34,1,0,0,171,36,0,0,0,171,26,0,0;            59P     32
508,4,0,171,36,1,0,0,171,33,1,0,0,171,30,1,0,0,171,27,1,0;            61P     33
508,8,0,171,11,1,0,0,171,8,1,0,0,171,5,1,0,0,171,1,1,0,0,171,14,      63P     34
1,0,0,171,17,1,0,0,171,20,1,0,0,171,23,1,0;                           63P     35
508,4,0,171,35,1,0,0,171,25,1,0,0,171,29,1,0,0,171,32,1,0;            65P     36
126,1,1,0,0,1,0,0.,0.,1.8,1.8,1.,1.,25.,23.,1.8,25.,41.,1.8,0.,       67P     37
1.8,0.,0.,0.;                                                         67P     38
126,1,1,0,0,1,0,0.18,0.18,0.35,0.35,1.,1.,25.,23.,1.8,25.,23.,        69P     39
3.5,0.18,0.35,0.,0.,0.;                                               69P     40
126,1,1,0,0,1,0,-1.8,-1.8,0.,0.,1.,1.,25.,41.,3.5,25.,23.,3.5,        71P     41
-1.8,0.,0.,0.,0.;                                                     71P     42
126,1,1,0,0,1,0,0.18,0.18,0.35,0.35,1.,1.,25.,41.,1.8,25.,41.,        73P     43
3.5,0.18,0.35,0.,0.,0.;                                               73P     44
126,2,2,0,0,0,0,-1.5707963267949,-1.5707963267949,                    75P     45
-1.5707963267949,0.,0.,0.,1.,0.707106781186549,1.,27.,21.,1.8,        75P     46
25.,21.,1.8,25.,23.,1.8,-1.5707963267949,0.,0.,0.,0.;                 75P     47
126,1,1,0,0,1,0,0.18,0.18,0.35,0.35,1.,1.,27.,21.,1.8,27.,21.,        77P     48
3.5,0.18,0.35,0.,0.,0.;                                               77P     49
126,2,2,0,0,0,0,0.,0.,0.,1.5707963267949,1.5707963267949,             79P     50
1.5707963267949,1.,0.707106781186549,1.,25.,23.,3.5,25.,21.,3.5,      79P     51
27.,21.,3.5,0.,1.5707963267949,0.,0.,0.;                              79P     52
126,1,1,0,0,1,0,0.,0.,7.8,7.8,1.,1.,105.,21.,1.8,27.,21.,1.8,0.,      81P     53
7.8,0.,0.,0.;                                                         81P     54
126,1,1,0,0,1,0,0.18,0.18,0.35,0.35,1.,1.,105.,21.,1.8,105.,21.,      83P     55
3.5,0.18,0.35,0.,0.,0.;                                               83P     56
126,1,1,0,0,1,0,-7.8,-7.8,0.,0.,1.,1.,27.,21.,3.5,105.,21.,3.5,       85P     57
-7.8,0.,0.,0.,0.;                                                     85P     58
126,2,2,0,0,0,0,-1.5707963267949,-1.5707963267949,                    87P     59
-1.5707963267949,0.,0.,0.,1.,0.707106781186554,1.,107.,23.,1.8,       87P     60
107.,21.,1.8,105.,21.,1.8,-1.5707963267949,0.,0.,0.,0.;               87P     61
126,1,1,0,0,1,0,0.18,0.18,0.35,0.35,1.,1.,107.,23.,1.8,107.,23.,      89P     62
3.5,0.18,0.35,0.,0.,0.;                                               89P     63
126,2,2,0,0,0,0,0.,0.,0.,1.5707963267949,1.5707963267949,             91P     64
1.5707963267949,1.,0.707106781186554,1.,105.,21.,3.5,107.,21.,        91P     65
3.5,107.,23.,3.5,0.,1.5707963267949,0.,0.,0.;                         91P     66
126,2,2,0,0,0,0,-1.57079632679489,-1.57079632679489,                  93P     67
-1.57079632679489,0.,0.,0.,1.,0.707106781186546,1.,25.,41.,1.8,       93P     68
25.,43.,1.8,27.,43.,1.8,-1.57079632679489,0.,0.,0.,0.;                93P     69
126,2,2,0,0,0,0,0.,0.,0.,1.57079632679489,1.57079632679489,           95P     70
1.57079632679489,1.,0.707106781186546,1.,27.,43.,3.5,25.,43.,         95P     71
3.5,25.,41.,3.5,0.,1.57079632679489,0.,0.,0.;                         95P     72
126,1,1,0,0,1,0,0.18,0.18,0.35,0.35,1.,1.,27.,43.,1.8,27.,43.,        97P     73
3.5,0.18,0.35,0.,0.,0.;                                               97P     74
126,1,1,0,0,1,0,0.,0.,7.8,7.8,1.,1.,27.,43.,1.8,105.,43.,1.8,0.,      99P     75
7.8,0.,0.,0.;                                                         99P     76
126,1,1,0,0,1,0,-7.8,-7.8,0.,0.,1.,1.,105.,43.,3.5,27.,43.,3.5,      101P     77
-7.8,0.,0.,0.,0.;                                                    101P     78
126,1,1,0,0,1,0,0.18,0.18,0.35,0.35,1.,1.,105.,43.,1.8,105.,43.,     103P     79
3.5,0.18,0.35,0.,0.,0.;                                              103P     80
126,2,2,0,0,0,0,-1.5707963267949,-1.5707963267949,                   105P     81
-1.5707963267949,0.,0.,0.,1.,0.707106781186554,1.,105.,43.,1.8,      105P     82
107.,43.,1.8,107.,41.,1.8,-1.5707963267949,0.,0.,0.,0.;              105P     83
126,2,2,0,0,0,0,0.,0.,0.,1.5707963267949,1.5707963267949,            107P     84
1.5707963267949,1.,0.707106781186554,1.,107.,41.,3.5,107.,43.,       107P     85
3.5,105.,43.,3.5,0.,1.5707963267949,0.,0.,0.;                        107P     86
126,1,1,0,0,1,0,0.18,0.18,0.35,0.35,1.,1.,107.,41.,1.8,107.,41.,     109P     87
3.5,0.18,0.35,0.,0.,0.;                                              109P     88
126,1,1,0,0,1,0,0.,0.,1.8,1.8,1.,1.,107.,41.,1.8,107.,23.,1.8,       111P     89
0.,1.8,0.,0.,0.;                                                     111P     90
126,1,1,0,0,1,0,-1.8,-1.8,0.,0.,1.,1.,107.,23.,3.5,107.,41.,3.5,     113P     91
-1.8,0.,0.,0.,0.;                                                    113P     92
126,1,1,0,0,1,0,0.,0.,3.,3.,1.,1.,20.,17.,0.,20.,47.,0.,0.,3.,       115P     93
0.,0.,0.;                                                            115P     94
126,1,1,0,0,1,0,0.,0.,0.18,0.18,1.,1.,20.,17.,0.,20.,17.,1.8,0.,     117P     95
0.18,0.,0.,0.;                                                       117P     96
126,1,1,0,0,1,0,-3.,-3.,0.,0.,1.,1.,20.,47.,1.8,20.,17.,1.8,-3.,     119P     97
0.,0.,0.,0.;                                                         119P     98
126,1,1,0,0,1,0,0.,0.,0.18,0.18,1.,1.,20.,47.,0.,20.,47.,1.8,0.,     121P     99
0.18,0.,0.,0.;                                                       121P    100
126,1,1,0,0,1,0,0.,0.,9.2,9.2,1.,1.,20.,47.,0.,112.,47.,0.,0.,       123P    101
9.2,0.,0.,0.;                                                        123P    102
126,1,1,0,0,1,0,-9.2,-9.2,0.,0.,1.,1.,112.,47.,1.8,20.,47.,1.8,      125P    103
-9.2,0.,0.,0.,0.;                                                    125P    104
126,1,1,0,0,1,0,0.,0.,0.18,0.18,1.,1.,112.,47.,0.,112.,47.,1.8,      127P    105
0.,0.18,0.,0.,0.;                                                    127P    106
126,1,1,0,0,1,0,0.,0.,3.,3.,1.,1.,112.,47.,0.,112.,17.,0.,0.,3.,     129P    107
0.,0.,0.;                                                            129P    108
126,1,1,0,0,1,0,-3.,-3.,0.,0.,1.,1.,112.,17.,1.8,112.,47.,1.8,       131P    109
-3.,0.,0.,0.,0.;                                                     131P    110
126,1,1,0,0,1,0,0.,0.,0.18,0.18,1.,1.,112.,17.,0.,112.,17.,1.8,      133P    111
0.,0.18,0.,0.,0.;                                                    133P    112
126,1,1,0,0,1,0,0.,0.,9.2,9.2,1.,1.,112.,17.,0.,20.,17.,0.,0.,       135P    113
9.2,0.,0.,0.;                                                        135P    114
126,1,1,0,0,1,0,-9.2,-9.2,0.,0.,1.,1.,20.,17.,1.8,112.,17.,1.8,      137P    115
-9.2,0.,0.,0.,0.;                                                    137P    116
128,1,1,1,1,0,0,1,0,0,-0.001,-0.001,1.801,1.801,0.179,0.179,         139P    117
0.351,0.351,1.,1.,1.,1.,25.,41.01,1.79,25.,22.99,1.79,25.,41.01,     139P    118
3.51,25.,22.99,3.51,-0.001,1.801,0.179,0.351;                        139P    119
128,1,2,1,2,0,0,0,0,0,0.899999999999999,0.899999999999999,1.75,      141P    120
1.75,0.,0.,0.,1.5707963267949,1.5707963267949,1.5707963267949,       141P    121
1.,1.,0.707106781186548,0.707106781186548,1.,1.,25.,23.,3.5,25.,     141P    122
23.,1.8,25.,21.,3.5,25.,21.,1.8,27.,21.,3.5,27.,21.,1.8,             141P    123
0.899999999999999,1.75,0.,1.5707963267949;                           141P    124
128,1,1,1,1,0,0,1,0,0,-0.001,-0.001,7.801,7.801,0.179,0.179,         143P    125
0.351,0.351,1.,1.,1.,1.,26.99,21.,1.79,105.01,21.,1.79,26.99,        143P    126
21.,3.51,105.01,21.,3.51,-0.001,7.801,0.179,0.351;                   143P    127
128,1,2,1,2,0,0,0,0,0,0.900000000000003,0.900000000000003,           145P    128
1.75000000000001,1.75000000000001,0.,0.,0.,1.5707963267949,          145P    129
1.5707963267949,1.5707963267949,1.,1.,0.707106781186548,             145P    130
0.707106781186548,1.,1.,105.,21.,3.5,105.,21.,1.8,107.,21.,3.5,      145P    131
107.,21.,1.8,107.,23.,3.5,107.,23.,1.8,0.900000000000003,            145P    132
1.75000000000001,0.,1.5707963267949;                                 145P    133
128,1,2,1,2,0,0,0,0,0,0.899999999999995,0.899999999999995,           147P    134
1.74999999999999,1.74999999999999,0.,0.,0.,1.57079632679489,         147P    135
1.57079632679489,1.57079632679489,1.,1.,0.707106781186551,           147P    136
0.707106781186551,1.,1.,27.,43.,3.5,27.,43.,1.8,25.,43.,3.5,25.,     147P    137
43.,1.8,25.,41.,3.5,25.,41.,1.8,0.899999999999995,                   147P    138
1.74999999999999,0.,1.57079632679489;                                147P    139
128,1,1,1,1,0,0,1,0,0,-0.001,-0.001,7.801,7.801,0.179,0.179,         149P    140
0.351,0.351,1.,1.,1.,1.,105.01,43.,1.79,26.99,43.,1.79,105.01,       149P    141
43.,3.51,26.99,43.,3.51,-0.001,7.801,0.179,0.351;                    149P    142
128,1,2,1,2,0,0,0,0,0,0.900000000000003,0.900000000000003,           151P    143
1.75000000000001,1.75000000000001,0.,0.,0.,1.5707963267949,          151P    144
1.5707963267949,1.5707963267949,1.,1.,0.707106781186548,             151P    145
0.707106781186548,1.,1.,107.,41.,3.5,107.,41.,1.8,107.,43.,3.5,      151P    146
107.,43.,1.8,105.,43.,3.5,105.,43.,1.8,0.900000000000003,            151P    147
1.75000000000001,0.,1.5707963267949;                                 151P    148
128,1,1,1,1,0,0,1,0,0,-0.001,-0.001,1.801,1.801,0.179,0.179,         153P    149
0.351,0.351,1.,1.,1.,1.,107.,22.99,1.79,107.,41.01,1.79,107.,        153P    150
22.99,3.51,107.,41.01,3.51,-0.001,1.801,0.179,0.351;                 153P    151
128,1,1,1,1,0,0,1,0,0,-4.101,-4.101,4.101,4.101,-1.101,-1.101,       155P    152
1.101,1.101,1.,1.,1.,1.,24.99,20.99,3.5,107.01,20.99,3.5,24.99,      155P    153
43.01,3.5,107.01,43.01,3.5,-4.101,4.101,-1.101,1.101;                155P    154
128,1,1,1,1,0,0,1,0,0,-0.001,-0.001,3.001,3.001,-0.001,-0.001,       157P    155
0.181,0.181,1.,1.,1.,1.,20.,47.01,-0.01,20.,16.99,-0.01,20.,         157P    156
47.01,1.81,20.,16.99,1.81,-0.001,3.001,-0.001,0.181;                 157P    157
128,1,1,1,1,0,0,1,0,0,-0.001,-0.001,9.201,9.201,-0.001,-0.001,       159P    158
0.181,0.181,1.,1.,1.,1.,112.01,47.,-0.01,19.99,47.,-0.01,112.01,     159P    159
47.,1.81,19.99,47.,1.81,-0.001,9.201,-0.001,0.181;                   159P    160
128,1,1,1,1,0,0,1,0,0,-0.001,-0.001,3.001,3.001,-0.001,-0.001,       161P    161
0.181,0.181,1.,1.,1.,1.,112.,16.99,-0.01,112.,47.01,-0.01,112.,      161P    162
16.99,1.81,112.,47.01,1.81,-0.001,3.001,-0.001,0.181;                161P    163
128,1,1,1,1,0,0,1,0,0,-0.00100000000000044,-0.00100000000000044,     163P    164
9.201,9.201,-0.001,-0.001,0.181,0.181,1.,1.,1.,1.,19.99,17.,         163P    165
-0.01,112.01,17.,-0.01,19.99,17.,1.81,112.01,17.,1.81,               163P    166
-0.00100000000000044,9.201,-0.001,0.181;                             163P    167
128,1,1,1,1,0,0,1,0,0,-4.601,-4.601,4.601,4.601,-1.501,-1.501,       165P    168
1.501,1.501,1.,1.,1.,1.,19.99,16.99,1.8,112.01,16.99,1.8,19.99,      165P    169
47.01,1.8,112.01,47.01,1.8,-4.601,4.601,-1.501,1.501;                165P    170
128,1,1,1,1,0,0,1,0,0,-4.601,-4.601,4.601,4.601,-1.501,-1.501,       167P    171
1.501,1.501,1.,1.,1.,1.,112.01,16.99,0.,19.99,16.99,0.,112.01,       167P    172
47.01,0.,19.99,47.01,0.,-4.601,4.601,-1.501,1.501;                   167P    173
502,24,25.,23.,1.8,25.,41.,1.8,25.,23.,3.5,25.,41.,3.5,27.,21.,      169P    174
1.8,27.,21.,3.5,105.,21.,1.8,105.,21.,3.5,107.,23.,1.8,107.,23.,     169P    175
3.5,27.,43.,1.8,27.,43.,3.5,105.,43.,1.8,105.,43.,3.5,107.,41.,      169P    176
1.8,107.,41.,3.5,20.,17.,0.,20.,47.,0.,20.,17.,1.8,20.,47.,1.8,      169P    177
112.,47.,0.,112.,47.,1.8,112.,17.,0.,112.,17.,1.8;                   169P    178
504,36,67,169,1,169,2,69,169,1,169,3,71,169,4,169,3,73,169,2,        171P    179
169,4,75,169,5,169,1,77,169,5,169,6,79,169,3,169,6,81,169,7,169,     171P    180
5,83,169,7,169,8,85,169,6,169,8,87,169,9,169,7,89,169,9,169,10,      171P    181
91,169,8,169,10,93,169,2,169,11,95,169,12,169,4,97,169,11,169,       171P    182
12,99,169,11,169,13,101,169,14,169,12,103,169,13,169,14,105,169,     171P    183
13,169,15,107,169,16,169,14,109,169,15,169,16,111,169,15,169,9,      171P    184
113,169,10,169,16,115,169,17,169,18,117,169,17,169,19,119,169,       171P    185
20,169,19,121,169,18,169,20,123,169,18,169,21,125,169,22,169,20,     171P    186
127,169,21,169,22,129,169,21,169,23,131,169,24,169,22,133,169,       171P    187
23,169,24,135,169,23,169,17,137,169,19,169,24;                       171P    188
406,1,5HBody2;                                                       173P    189
314,81.5686274509804,81.5686274509804,81.5686274509804,12HLead -     175P    190
 Satin;                                                              175P    191
S      1G      3D    176P    191                                        T      1
