                                                                        S      1
,,8HFp2mm v5,8HFp2mm v5,7Hunknown,7Hunknown,32,38,7,99,15,,1.,2,2HMM,1, G      1
0.08,15H20220727.101534,0.01,10000.,7Hunknown,7Hunknown,11,0,15H20220704G      2
.035318;                                                                G      3
     186       1                                                00000000D      1
     186            -251       1       0                               0D      2
     514       2                                                00010000D      3
     514                       2       1                               0D      4
     510       4                                                00010000D      5
     510            -251       1       1                               0D      6
     510       5                                                00010000D      7
     510            -251       1       1                               0D      8
     510       6                                                00010000D      9
     510            -251       1       1                               0D     10
     510       7                                                00010000D     11
     510            -251       1       1                               0D     12
     510       8                                                00010000D     13
     510            -251       1       1                               0D     14
     510       9                                                00010000D     15
     510            -251       1       1                               0D     16
     510      10                                                00010000D     17
     510            -251       1       1                               0D     18
     510      11                                                00010000D     19
     510            -251       1       1                               0D     20
     510      12                                                00010000D     21
     510            -251       1       1                               0D     22
     510      13                                                00010000D     23
     510            -251       1       1                               0D     24
     510      14                                                00010000D     25
     510            -251       1       1                               0D     26
     510      15                                                00010000D     27
     510            -251       1       1                               0D     28
     510      16                                                00010000D     29
     510            -251       1       1                               0D     30
     510      17                                                00010000D     31
     510            -251       1       1                               0D     32
     510      18                                                00010000D     33
     510            -251       1       1                               0D     34
     510      19                                                00010000D     35
     510            -251       1       1                               0D     36
     510      20                                                00010000D     37
     510            -251       1       1                               0D     38
     510      21                                                00010000D     39
     510            -251       1       1                               0D     40
     510      22                                                00010000D     41
     510            -251       1       1                               0D     42
     508      23                                                00010000D     43
     508                       1       1                               0D     44
     508      24                                                00010000D     45
     508                       1       1                               0D     46
     508      25                                                00010000D     47
     508                       1       1                               0D     48
     508      26                                                00010000D     49
     508                       1       1                               0D     50
     508      27                                                00010000D     51
     508                       1       1                               0D     52
     508      28                                                00010000D     53
     508                       1       1                               0D     54
     508      29                                                00010000D     55
     508                       1       1                               0D     56
     508      30                                                00010000D     57
     508                       1       1                               0D     58
     508      31                                                00010000D     59
     508                       1       1                               0D     60
     508      32                                                00010000D     61
     508                       1       1                               0D     62
     508      33                                                00010000D     63
     508                       1       1                               0D     64
     508      34                                                00010000D     65
     508                       1       1                               0D     66
     508      35                                                00010000D     67
     508                       1       1                               0D     68
     508      36                                                00010000D     69
     508                       1       1                               0D     70
     508      37                                                00010000D     71
     508                       1       1                               0D     72
     508      38                                                00010000D     73
     508                       1       1                               0D     74
     508      39                                                00010000D     75
     508                       1       1                               0D     76
     508      40                                                00010000D     77
     508                       1       1                               0D     78
     508      41                                                00010000D     79
     508                       1       1                               0D     80
     508      42                                                00010000D     81
     508                       1       1                               0D     82
     508      43                                                00010000D     83
     508                       1       1                               0D     84
     508      44                                                00010000D     85
     508                       1       1                               0D     86
     508      45                                                00010000D     87
     508                       1       1                               0D     88
     508      46                                                00010000D     89
     508                       2       1                               0D     90
     508      48                                                00010000D     91
     508                       1       1                               0D     92
     508      49                                                00010000D     93
     508                       1       1                               0D     94
     508      50                                                00010000D     95
     508                       1       1                               0D     96
     508      51                                                00010000D     97
     508                       1       1                               0D     98
     508      52                                                00010000D     99
     508                       1       1                               0D    100
     508      53                                                00010000D    101
     508                       1       1                               0D    102
     508      54                                                00010000D    103
     508                       2       1                               0D    104
     126      56                                                00010000D    105
     126       0               2       0                               0D    106
     126      58                                                00010000D    107
     126       0               2       0                               0D    108
     126      60                                                00010000D    109
     126       0               2       0                               0D    110
     126      62                                                00010000D    111
     126       0               2       0                               0D    112
     126      64                                                00010000D    113
     126       0               3       0                               0D    114
     126      67                                                00010000D    115
     126       0               3       0                               0D    116
     126      70                                                00010000D    117
     126       0               2       0                               0D    118
     126      72                                                00010000D    119
     126       0               2       0                               0D    120
     126      74                                                00010000D    121
     126       0               2       0                               0D    122
     126      76                                                00010000D    123
     126       0               2       0                               0D    124
     126      78                                                00010000D    125
     126       0               3       0                               0D    126
     126      81                                                00010000D    127
     126       0               3       0                               0D    128
     126      84                                                00010000D    129
     126       0               2       0                               0D    130
     126      86                                                00010000D    131
     126       0               2       0                               0D    132
     126      88                                                00010000D    133
     126       0               2       0                               0D    134
     126      90                                                00010000D    135
     126       0               2       0                               0D    136
     126      92                                                00010000D    137
     126       0               3       0                               0D    138
     126      95                                                00010000D    139
     126       0               3       0                               0D    140
     126      98                                                00010000D    141
     126       0               2       0                               0D    142
     126     100                                                00010000D    143
     126       0               2       0                               0D    144
     126     102                                                00010000D    145
     126       0               2       0                               0D    146
     126     104                                                00010000D    147
     126       0               2       0                               0D    148
     126     106                                                00010000D    149
     126       0               3       0                               0D    150
     126     109                                                00010000D    151
     126       0               3       0                               0D    152
     126     112                                                00010000D    153
     126       0               8       0                               0D    154
     126     120                                                00010000D    155
     126       0               2       0                               0D    156
     126     122                                                00010000D    157
     126       0               8       0                               0D    158
     126     130                                                00010000D    159
     126       0               8       0                               0D    160
     126     138                                                00010000D    161
     126       0               2       0                               0D    162
     126     140                                                00010000D    163
     126       0               8       0                               0D    164
     126     148                                                00010000D    165
     126       0               8       0                               0D    166
     126     156                                                00010000D    167
     126       0               2       0                               0D    168
     126     158                                                00010000D    169
     126       0               8       0                               0D    170
     126     166                                                00010000D    171
     126       0               8       0                               0D    172
     126     174                                                00010000D    173
     126       0               2       0                               0D    174
     126     176                                                00010000D    175
     126       0               8       0                               0D    176
     126     184                                                00010000D    177
     126       0               8       0                               0D    178
     126     192                                                00010000D    179
     126       0               2       0                               0D    180
     126     194                                                00010000D    181
     126       0               8       0                               0D    182
     126     202                                                00010000D    183
     126       0               2       0                               0D    184
     126     204                                                00010000D    185
     126       0               2       0                               0D    186
     126     206                                                00010000D    187
     126       0               2       0                               0D    188
     126     208                                                00010000D    189
     126       0               2       0                               0D    190
     126     210                                                00010000D    191
     126       0               2       0                               0D    192
     126     212                                                00010000D    193
     126       0               2       0                               0D    194
     126     214                                                00010000D    195
     126       0               2       0                               0D    196
     126     216                                                00010000D    197
     126       0               2       0                               0D    198
     126     218                                                00010000D    199
     126       0               2       0                               0D    200
     126     220                                                00010000D    201
     126       0               2       0                               0D    202
     126     222                                                00010000D    203
     126       0               2       0                               0D    204
     126     224                                                00010000D    205
     126       0               2       0                               0D    206
     128     226                                                00010000D    207
     128       0    -251       3       0                               0D    208
     128     229                                                00010000D    209
     128       0    -251       4       0                               0D    210
     128     233                                                00010000D    211
     128       0    -251       3       0                               0D    212
     128     236                                                00010000D    213
     128       0    -251       5       0                               0D    214
     128     241                                                00010000D    215
     128       0    -251       3       0                               0D    216
     128     244                                                00010000D    217
     128       0    -251       5       0                               0D    218
     128     249                                                00010000D    219
     128       0    -251       3       0                               0D    220
     128     252                                                00010000D    221
     128       0    -251       4       0                               0D    222
     128     256                                                00010000D    223
     128       0    -251      12       0                               0D    224
     128     268                                                00010000D    225
     128       0    -251      12       0                               0D    226
     128     280                                                00010000D    227
     128       0    -251      12       0                               0D    228
     128     292                                                00010000D    229
     128       0    -251      11       0                               0D    230
     128     303                                                00010000D    231
     128       0    -251      12       0                               0D    232
     128     315                                                00010000D    233
     128       0    -251       4       0                               0D    234
     128     319                                                00010000D    235
     128       0    -251       3       0                               0D    236
     128     322                                                00010000D    237
     128       0    -251       3       0                               0D    238
     128     325                                                00010000D    239
     128       0    -251       4       0                               0D    240
     128     329                                                00010000D    241
     128       0    -251       5       0                               0D    242
     128     334                                                00010000D    243
     128       0    -251       4       0                               0D    244
     502     338                                                00010000D    245
     502                       7       1                               0D    246
     504     345                                                00010001D    247
     504                      15       1                               0D    248
     406     360                                                00000000D    249
     406                       1      15                               0D    250
     314     361                                                00000200D    251
     314                       2       0                               0D    252
186,3,1,0,0,1,249;                                                     1P      1
514,19,5,1,7,1,9,1,11,1,13,1,15,1,17,1,19,1,21,1,23,1,25,1,27,1,       3P      2
29,1,31,1,33,1,35,1,37,1,39,1,41,1;                                    3P      3
510,207,1,1,43;                                                        5P      4
510,209,1,1,45;                                                        7P      5
510,211,1,1,47;                                                        9P      6
510,213,1,1,49;                                                       11P      7
510,215,1,1,51;                                                       13P      8
510,217,1,1,53;                                                       15P      9
510,219,1,1,55;                                                       17P     10
510,221,1,1,57;                                                       19P     11
510,223,1,1,59;                                                       21P     12
510,225,1,1,61;                                                       23P     13
510,227,1,1,63;                                                       25P     14
510,229,1,1,65;                                                       27P     15
510,231,1,1,67;                                                       29P     16
510,233,1,1,69;                                                       31P     17
510,235,1,1,71;                                                       33P     18
510,237,1,1,73;                                                       35P     19
510,239,1,1,75;                                                       37P     20
510,241,7,1,77,79,81,83,85,87,89;                                     39P     21
510,243,7,1,91,93,95,97,99,101,103;                                   41P     22
508,4,0,247,1,1,0,0,247,2,1,0,0,247,3,0,0,0,247,4,0,0;                43P     23
508,4,0,247,5,1,0,0,247,4,1,0,0,247,6,0,0,0,247,7,0,0;                45P     24
508,4,0,247,8,1,0,0,247,7,1,0,0,247,9,0,0,0,247,10,0,0;               47P     25
508,4,0,247,11,1,0,0,247,10,1,0,0,247,12,0,0,0,247,13,0,0;            49P     26
508,4,0,247,14,1,0,0,247,13,1,0,0,247,15,0,0,0,247,16,0,0;            51P     27
508,4,0,247,17,1,0,0,247,16,1,0,0,247,18,0,0,0,247,19,0,0;            53P     28
508,4,0,247,20,1,0,0,247,19,1,0,0,247,21,0,0,0,247,22,0,0;            55P     29
508,4,0,247,23,1,0,0,247,22,1,0,0,247,24,0,0,0,247,2,0,0;             57P     30
508,4,0,247,25,0,0,0,247,26,1,0,0,247,27,1,0,0,247,26,0,0;            59P     31
508,4,0,247,28,0,0,0,247,29,1,0,0,247,30,1,0,0,247,29,0,0;            61P     32
508,4,0,247,31,0,0,0,247,32,1,0,0,247,33,1,0,0,247,32,0,0;            63P     33
508,4,0,247,34,0,0,0,247,35,1,0,0,247,36,1,0,0,247,35,0,0;            65P     34
508,4,0,247,37,0,0,0,247,38,1,0,0,247,39,1,0,0,247,38,0,0;            67P     35
508,4,0,247,40,1,0,0,247,41,1,0,0,247,42,0,0,0,247,43,0,0;            69P     36
508,4,0,247,44,1,0,0,247,43,1,0,0,247,45,0,0,0,247,46,0,0;            71P     37
508,4,0,247,47,1,0,0,247,46,1,0,0,247,48,0,0,0,247,49,0,0;            73P     38
508,4,0,247,50,1,0,0,247,49,1,0,0,247,51,0,0,0,247,41,0,0;            75P     39
508,4,0,247,51,1,0,0,247,48,1,0,0,247,45,1,0,0,247,42,1,0;            77P     40
508,1,0,247,37,1,0;                                                   79P     41
508,1,0,247,34,1,0;                                                   81P     42
508,1,0,247,31,1,0;                                                   83P     43
508,1,0,247,28,1,0;                                                   85P     44
508,1,0,247,25,1,0;                                                   87P     45
508,8,0,247,24,1,0,0,247,21,1,0,0,247,18,1,0,0,247,15,1,0,0,247,      89P     46
12,1,0,0,247,9,1,0,0,247,6,1,0,0,247,3,1,0;                           89P     47
508,4,0,247,50,0,0,0,247,40,0,0,0,247,44,0,0,0,247,47,0,0;            91P     48
508,1,0,247,39,0,0;                                                   93P     49
508,1,0,247,36,0,0;                                                   95P     50
508,1,0,247,33,0,0;                                                   97P     51
508,1,0,247,30,0,0;                                                   99P     52
508,1,0,247,27,0,0;                                                  101P     53
508,8,0,247,23,0,0,0,247,1,0,0,0,247,5,0,0,0,247,8,0,0,0,247,11,     103P     54
0,0,0,247,14,0,0,0,247,17,0,0,0,247,20,0,0;                          103P     55
126,1,1,0,0,1,0,0.,0.,1.8,1.8,1.,1.,107.,41.,0.,107.,23.,0.,0.,      105P     56
1.8,0.,0.,0.;                                                        105P     57
126,1,1,0,0,1,0,0.,0.,0.2,0.2,1.,1.,107.,23.,0.,107.,23.,2.,0.,      107P     58
0.2,0.,0.,0.;                                                        107P     59
126,1,1,0,0,1,0,0.,0.,1.8,1.8,1.,1.,107.,41.,2.,107.,23.,2.,0.,      109P     60
1.8,0.,0.,0.;                                                        109P     61
126,1,1,0,0,1,0,0.,0.,0.2,0.2,1.,1.,107.,41.,0.,107.,41.,2.,0.,      111P     62
0.2,0.,0.,0.;                                                        111P     63
126,2,2,0,0,0,0,-1.5707963267949,-1.5707963267949,                   113P     64
-1.5707963267949,0.,0.,0.,1.,0.707106781186554,1.,105.,43.,0.,       113P     65
107.,43.,0.,107.,41.,0.,-1.5707963267949,0.,0.,0.,0.;                113P     66
126,2,2,0,0,0,0,-1.5707963267949,-1.5707963267949,                   115P     67
-1.5707963267949,0.,0.,0.,1.,0.707106781186554,1.,105.,43.,2.,       115P     68
107.,43.,2.,107.,41.,2.,-1.5707963267949,0.,0.,0.,0.;                115P     69
126,1,1,0,0,1,0,0.,0.,0.2,0.2,1.,1.,105.,43.,0.,105.,43.,2.,0.,      117P     70
0.2,0.,0.,0.;                                                        117P     71
126,1,1,0,0,1,0,0.,0.,7.8,7.8,1.,1.,27.,43.,0.,105.,43.,0.,0.,       119P     72
7.8,0.,0.,0.;                                                        119P     73
126,1,1,0,0,1,0,0.,0.,7.8,7.8,1.,1.,27.,43.,2.,105.,43.,2.,0.,       121P     74
7.8,0.,0.,0.;                                                        121P     75
126,1,1,0,0,1,0,0.,0.,0.2,0.2,1.,1.,27.,43.,0.,27.,43.,2.,0.,        123P     76
0.2,0.,0.,0.;                                                        123P     77
126,2,2,0,0,0,0,-1.57079632679489,-1.57079632679489,                 125P     78
-1.57079632679489,0.,0.,0.,1.,0.707106781186546,1.,25.,41.,0.,       125P     79
25.,43.,0.,27.,43.,0.,-1.57079632679489,0.,0.,0.,0.;                 125P     80
126,2,2,0,0,0,0,-1.57079632679489,-1.57079632679489,                 127P     81
-1.57079632679489,0.,0.,0.,1.,0.707106781186546,1.,25.,41.,2.,       127P     82
25.,43.,2.,27.,43.,2.,-1.57079632679489,0.,0.,0.,0.;                 127P     83
126,1,1,0,0,1,0,0.,0.,0.2,0.2,1.,1.,25.,41.,0.,25.,41.,2.,0.,        129P     84
0.2,0.,0.,0.;                                                        129P     85
126,1,1,0,0,1,0,0.,0.,1.8,1.8,1.,1.,25.,23.,0.,25.,41.,0.,0.,        131P     86
1.8,0.,0.,0.;                                                        131P     87
126,1,1,0,0,1,0,0.,0.,1.8,1.8,1.,1.,25.,23.,2.,25.,41.,2.,0.,        133P     88
1.8,0.,0.,0.;                                                        133P     89
126,1,1,0,0,1,0,0.,0.,0.2,0.2,1.,1.,25.,23.,0.,25.,23.,2.,0.,        135P     90
0.2,0.,0.,0.;                                                        135P     91
126,2,2,0,0,0,0,-1.5707963267949,-1.5707963267949,                   137P     92
-1.5707963267949,0.,0.,0.,1.,0.707106781186549,1.,27.,21.,0.,        137P     93
25.,21.,0.,25.,23.,0.,-1.5707963267949,0.,0.,0.,0.;                  137P     94
126,2,2,0,0,0,0,-1.5707963267949,-1.5707963267949,                   139P     95
-1.5707963267949,0.,0.,0.,1.,0.707106781186549,1.,27.,21.,2.,        139P     96
25.,21.,2.,25.,23.,2.,-1.5707963267949,0.,0.,0.,0.;                  139P     97
126,1,1,0,0,1,0,0.,0.,0.2,0.2,1.,1.,27.,21.,0.,27.,21.,2.,0.,        141P     98
0.2,0.,0.,0.;                                                        141P     99
126,1,1,0,0,1,0,0.,0.,7.8,7.8,1.,1.,105.,21.,0.,27.,21.,0.,0.,       143P    100
7.8,0.,0.,0.;                                                        143P    101
126,1,1,0,0,1,0,0.,0.,7.8,7.8,1.,1.,105.,21.,2.,27.,21.,2.,0.,       145P    102
7.8,0.,0.,0.;                                                        145P    103
126,1,1,0,0,1,0,0.,0.,0.2,0.2,1.,1.,105.,21.,0.,105.,21.,2.,0.,      147P    104
0.2,0.,0.,0.;                                                        147P    105
126,2,2,0,0,0,0,-1.5707963267949,-1.5707963267949,                   149P    106
-1.5707963267949,0.,0.,0.,1.,0.707106781186554,1.,107.,23.,0.,       149P    107
107.,21.,0.,105.,21.,0.,-1.5707963267949,0.,0.,0.,0.;                149P    108
126,2,2,0,0,0,0,-1.5707963267949,-1.5707963267949,                   151P    109
-1.5707963267949,0.,0.,0.,1.,0.707106781186554,1.,107.,23.,2.,       151P    110
107.,21.,2.,105.,21.,2.,-1.5707963267949,0.,0.,0.,0.;                151P    111
126,8,2,0,1,0,0,-3.14159265358979,-3.14159265358979,                 153P    112
-3.14159265358979,-1.5707963267949,-1.5707963267949,0.,0.,           153P    113
1.5707963267949,1.5707963267949,3.14159265358979,                    153P    114
3.14159265358979,3.14159265358979,1.,0.707106781186555,1.,           153P    115
0.707106781186555,1.,0.707106781186555,1.,0.707106781186555,1.,      153P    116
132.,32.,2.,132.,35.,2.,135.,35.,2.,138.,35.,2.,138.,32.,2.,         153P    117
138.,29.,2.,135.,29.,2.,132.,29.,2.,132.,32.,2.,                     153P    118
-3.14159265358979,3.14159265358979,0.,0.,0.;                         153P    119
126,1,1,0,0,1,0,-0.666666666666665,-0.666666666666665,0.,0.,1.,      155P    120
1.,132.,32.,2.,132.,32.,0.,-0.666666666666665,0.,0.,0.,0.;           155P    121
126,8,2,0,1,0,0,-3.14159265358979,-3.14159265358979,                 157P    122
-3.14159265358979,-1.5707963267949,-1.5707963267949,0.,0.,           157P    123
1.5707963267949,1.5707963267949,3.14159265358979,                    157P    124
3.14159265358979,3.14159265358979,1.,0.707106781186555,1.,           157P    125
0.707106781186555,1.,0.707106781186555,1.,0.707106781186555,1.,      157P    126
132.,32.,0.,132.,35.,0.,135.,35.,0.,138.,35.,0.,138.,32.,0.,         157P    127
138.,29.,0.,135.,29.,0.,132.,29.,0.,132.,32.,0.,                     157P    128
-3.14159265358979,3.14159265358979,0.,0.,0.;                         157P    129
126,8,2,0,1,0,0,-3.14159265358979,-3.14159265358979,                 159P    130
-3.14159265358979,-1.5707963267949,-1.5707963267949,0.,0.,           159P    131
1.5707963267949,1.5707963267949,3.14159265358979,                    159P    132
3.14159265358979,3.14159265358979,1.,0.707106781186547,1.,           159P    133
0.707106781186547,1.,0.707106781186547,1.,0.707106781186547,1.,      159P    134
153.5,55.,2.,153.5,56.5,2.,155.,56.5,2.,156.5,56.5,2.,156.5,55.,     159P    135
2.,156.5,53.5,2.,155.,53.5,2.,153.5,53.5,2.,153.5,55.,2.,            159P    136
-3.14159265358979,3.14159265358979,0.,0.,0.;                         159P    137
126,1,1,0,0,1,0,-1.33333333333333,-1.33333333333333,0.,0.,1.,1.,     161P    138
153.5,55.,2.,153.5,55.,0.,-1.33333333333333,0.,0.,0.,0.;             161P    139
126,8,2,0,1,0,0,-3.14159265358979,-3.14159265358979,                 163P    140
-3.14159265358979,-1.5707963267949,-1.5707963267949,0.,0.,           163P    141
1.5707963267949,1.5707963267949,3.14159265358979,                    163P    142
3.14159265358979,3.14159265358979,1.,0.707106781186547,1.,           163P    143
0.707106781186547,1.,0.707106781186547,1.,0.707106781186547,1.,      163P    144
153.5,55.,0.,153.5,56.5,0.,155.,56.5,0.,156.5,56.5,0.,156.5,55.,     163P    145
0.,156.5,53.5,0.,155.,53.5,0.,153.5,53.5,0.,153.5,55.,0.,            163P    146
-3.14159265358979,3.14159265358979,0.,0.,0.;                         163P    147
126,8,2,0,1,0,0,-3.14159265358979,-3.14159265358979,                 165P    148
-3.14159265358979,-1.5707963267949,-1.5707963267949,0.,0.,           165P    149
1.5707963267949,1.5707963267949,3.14159265358979,                    165P    150
3.14159265358979,3.14159265358979,1.,0.707106781186539,1.,           165P    151
0.707106781186539,1.,0.707106781186539,1.,0.707106781186539,1.,      165P    152
3.5,55.,2.,3.5,56.5,2.,5.,56.5,2.,6.5,56.5,2.,6.5,55.,2.,6.5,        165P    153
53.5,2.,5.,53.5,2.,3.5,53.5,2.,3.5,55.,2.,-3.14159265358979,         165P    154
3.14159265358979,0.,0.,0.;                                           165P    155
126,1,1,0,0,1,0,-1.33333333333333,-1.33333333333333,0.,0.,1.,1.,     167P    156
3.5,55.,2.,3.5,55.,0.,-1.33333333333333,0.,0.,0.,0.;                 167P    157
126,8,2,0,1,0,0,-3.14159265358979,-3.14159265358979,                 169P    158
-3.14159265358979,-1.5707963267949,-1.5707963267949,0.,0.,           169P    159
1.5707963267949,1.5707963267949,3.14159265358979,                    169P    160
3.14159265358979,3.14159265358979,1.,0.707106781186539,1.,           169P    161
0.707106781186539,1.,0.707106781186539,1.,0.707106781186539,1.,      169P    162
3.5,55.,0.,3.5,56.5,0.,5.,56.5,0.,6.5,56.5,0.,6.5,55.,0.,6.5,        169P    163
53.5,0.,5.,53.5,0.,3.5,53.5,0.,3.5,55.,0.,-3.14159265358979,         169P    164
3.14159265358979,0.,0.,0.;                                           169P    165
126,8,2,0,1,0,0,-3.14159265358979,-3.14159265358979,                 171P    166
-3.14159265358979,-1.5707963267949,-1.5707963267949,0.,0.,           171P    167
1.5707963267949,1.5707963267949,3.14159265358979,                    171P    168
3.14159265358979,3.14159265358979,1.,0.707106781186548,1.,           171P    169
0.707106781186548,1.,0.707106781186548,1.,0.707106781186548,1.,      171P    170
3.5,5.,2.,3.5,6.5,2.,5.,6.5,2.,6.5,6.5,2.,6.5,5.,2.,6.5,3.5,2.,      171P    171
5.,3.5,2.,3.5,3.5,2.,3.5,5.,2.,-3.14159265358979,                    171P    172
3.14159265358979,0.,0.,0.;                                           171P    173
126,1,1,0,0,1,0,-1.33333333333333,-1.33333333333333,0.,0.,1.,1.,     173P    174
3.5,5.,2.,3.5,5.,0.,-1.33333333333333,0.,0.,0.,0.;                   173P    175
126,8,2,0,1,0,0,-3.14159265358979,-3.14159265358979,                 175P    176
-3.14159265358979,-1.5707963267949,-1.5707963267949,0.,0.,           175P    177
1.5707963267949,1.5707963267949,3.14159265358979,                    175P    178
3.14159265358979,3.14159265358979,1.,0.707106781186548,1.,           175P    179
0.707106781186548,1.,0.707106781186548,1.,0.707106781186548,1.,      175P    180
3.5,5.,0.,3.5,6.5,0.,5.,6.5,0.,6.5,6.5,0.,6.5,5.,0.,6.5,3.5,0.,      175P    181
5.,3.5,0.,3.5,3.5,0.,3.5,5.,0.,-3.14159265358979,                    175P    182
3.14159265358979,0.,0.,0.;                                           175P    183
126,8,2,0,1,0,0,-3.14159265358979,-3.14159265358979,                 177P    184
-3.14159265358979,-1.5707963267949,-1.5707963267949,0.,0.,           177P    185
1.5707963267949,1.5707963267949,3.14159265358979,                    177P    186
3.14159265358979,3.14159265358979,1.,0.707106781186538,1.,           177P    187
0.707106781186538,1.,0.707106781186538,1.,0.707106781186538,1.,      177P    188
153.5,5.,2.,153.5,6.5,2.,155.,6.5,2.,156.5,6.5,2.,156.5,5.,2.,       177P    189
156.5,3.5,2.,155.,3.5,2.,153.5,3.5,2.,153.5,5.,2.,                   177P    190
-3.14159265358979,3.14159265358979,0.,0.,0.;                         177P    191
126,1,1,0,0,1,0,-1.33333333333333,-1.33333333333333,0.,0.,1.,1.,     179P    192
153.5,5.,2.,153.5,5.,0.,-1.33333333333333,0.,0.,0.,0.;               179P    193
126,8,2,0,1,0,0,-3.14159265358979,-3.14159265358979,                 181P    194
-3.14159265358979,-1.5707963267949,-1.5707963267949,0.,0.,           181P    195
1.5707963267949,1.5707963267949,3.14159265358979,                    181P    196
3.14159265358979,3.14159265358979,1.,0.707106781186538,1.,           181P    197
0.707106781186538,1.,0.707106781186538,1.,0.707106781186538,1.,      181P    198
153.5,5.,0.,153.5,6.5,0.,155.,6.5,0.,156.5,6.5,0.,156.5,5.,0.,       181P    199
156.5,3.5,0.,155.,3.5,0.,153.5,3.5,0.,153.5,5.,0.,                   181P    200
-3.14159265358979,3.14159265358979,0.,0.,0.;                         181P    201
126,1,1,0,0,1,0,0.,0.,16.,16.,1.,1.,160.,60.,0.,0.,60.,0.,0.,        183P    202
16.,0.,0.,0.;                                                        183P    203
126,1,1,0,0,1,0,0.,0.,0.2,0.2,1.,1.,0.,60.,0.,0.,60.,2.,0.,0.2,      185P    204
0.,0.,0.;                                                            185P    205
126,1,1,0,0,1,0,0.,0.,16.,16.,1.,1.,160.,60.,2.,0.,60.,2.,0.,        187P    206
16.,0.,0.,0.;                                                        187P    207
126,1,1,0,0,1,0,0.,0.,0.2,0.2,1.,1.,160.,60.,0.,160.,60.,2.,0.,      189P    208
0.2,0.,0.,0.;                                                        189P    209
126,1,1,0,0,1,0,0.,0.,6.,6.,1.,1.,160.,0.,0.,160.,60.,0.,0.,6.,      191P    210
0.,0.,0.;                                                            191P    211
126,1,1,0,0,1,0,0.,0.,6.,6.,1.,1.,160.,0.,2.,160.,60.,2.,0.,6.,      193P    212
0.,0.,0.;                                                            193P    213
126,1,1,0,0,1,0,0.,0.,0.2,0.2,1.,1.,160.,0.,0.,160.,0.,2.,0.,        195P    214
0.2,0.,0.,0.;                                                        195P    215
126,1,1,0,0,1,0,0.,0.,16.,16.,1.,1.,0.,0.,0.,160.,0.,0.,0.,16.,      197P    216
0.,0.,0.;                                                            197P    217
126,1,1,0,0,1,0,0.,0.,16.,16.,1.,1.,0.,0.,2.,160.,0.,2.,0.,16.,      199P    218
0.,0.,0.;                                                            199P    219
126,1,1,0,0,1,0,0.,0.,0.2,0.2,1.,1.,0.,0.,0.,0.,0.,2.,0.,0.2,0.,     201P    220
0.,0.;                                                               201P    221
126,1,1,0,0,1,0,0.,0.,6.,6.,1.,1.,0.,60.,0.,0.,0.,0.,0.,6.,0.,       203P    222
0.,0.;                                                               203P    223
126,1,1,0,0,1,0,0.,0.,6.,6.,1.,1.,0.,60.,2.,0.,0.,2.,0.,6.,0.,       205P    224
0.,0.;                                                               205P    225
128,1,1,1,1,0,0,1,0,0,-0.001,-0.001,1.801,1.801,-0.001,-0.001,       207P    226
0.201,0.201,1.,1.,1.,1.,107.,41.01,-0.01,107.,22.99,-0.01,107.,      207P    227
41.01,2.01,107.,22.99,2.01,-0.001,1.801,-0.001,0.201;                207P    228
128,1,2,1,2,0,0,0,0,0,0.,0.,1.,1.,0.,0.,0.,1.5707963267949,          209P    229
1.5707963267949,1.5707963267949,1.,1.,0.707106781186548,             209P    230
0.707106781186548,1.,1.,107.,41.,0.,107.,41.,2.,107.,43.,0.,         209P    231
107.,43.,2.,105.,43.,0.,105.,43.,2.,0.,1.,0.,1.5707963267949;        209P    232
128,1,1,1,1,0,0,1,0,0,-0.001,-0.001,7.801,7.801,-0.001,-0.001,       211P    233
0.201,0.201,1.,1.,1.,1.,26.99,43.,-0.01,105.01,43.,-0.01,26.99,      211P    234
43.,2.01,105.01,43.,2.01,-0.001,7.801,-0.001,0.201;                  211P    235
128,1,2,1,2,0,0,0,0,0,0.,0.,0.999999999999995,0.999999999999995,     213P    236
0.,0.,0.,1.57079632679489,1.57079632679489,1.57079632679489,1.,      213P    237
1.,0.707106781186551,0.707106781186551,1.,1.,27.,43.,0.,27.,43.,     213P    238
2.,25.,43.,0.,25.,43.,2.,25.,41.,0.,25.,41.,2.,0.,                   213P    239
0.999999999999995,0.,1.57079632679489;                               213P    240
128,1,1,1,1,0,0,1,0,0,-0.001,-0.001,1.801,1.801,-0.001,-0.001,       215P    241
0.201,0.201,1.,1.,1.,1.,25.,22.99,-0.01,25.,41.01,-0.01,25.,         215P    242
22.99,2.01,25.,41.01,2.01,-0.001,1.801,-0.001,0.201;                 215P    243
128,1,2,1,2,0,0,0,0,0,0.,0.,0.999999999999999,0.999999999999999,     217P    244
0.,0.,0.,1.5707963267949,1.5707963267949,1.5707963267949,1.,1.,      217P    245
0.707106781186548,0.707106781186548,1.,1.,25.,23.,0.,25.,23.,2.,     217P    246
25.,21.,0.,25.,21.,2.,27.,21.,0.,27.,21.,2.,0.,                      217P    247
0.999999999999999,0.,1.5707963267949;                                217P    248
128,1,1,1,1,0,0,1,0,0,-0.001,-0.001,7.801,7.801,-0.001,-0.001,       219P    249
0.201,0.201,1.,1.,1.,1.,105.01,21.,-0.01,26.99,21.,-0.01,105.01,     219P    250
21.,2.01,26.99,21.,2.01,-0.001,7.801,-0.001,0.201;                   219P    251
128,1,2,1,2,0,0,0,0,0,0.,0.,1.,1.,0.,0.,0.,1.5707963267949,          221P    252
1.5707963267949,1.5707963267949,1.,1.,0.707106781186548,             221P    253
0.707106781186548,1.,1.,105.,21.,0.,105.,21.,2.,107.,21.,0.,         221P    254
107.,21.,2.,107.,23.,0.,107.,23.,2.,0.,1.,0.,1.5707963267949;        221P    255
128,1,8,1,2,0,1,0,0,1,0.,0.,0.666666666666665,0.666666666666665,     223P    256
-3.14159265358979,-3.14159265358979,-3.14159265358979,               223P    257
-1.5707963267949,-1.5707963267949,0.,0.,1.5707963267949,             223P    258
1.5707963267949,3.14159265358979,3.14159265358979,                   223P    259
3.14159265358979,1.,1.,0.707106781186548,0.707106781186548,1.,       223P    260
1.,0.707106781186548,0.707106781186548,1.,1.,0.707106781186548,      223P    261
0.707106781186548,1.,1.,0.707106781186548,0.707106781186548,1.,      223P    262
1.,132.,32.,0.,132.,32.,2.,132.,29.,0.,132.,29.,2.,135.,29.,0.,      223P    263
135.,29.,2.,138.,29.,0.,138.,29.,2.,138.,32.,0.,138.,32.,2.,         223P    264
138.,35.,0.,138.,35.,2.,135.,35.,0.,135.,35.,2.,132.,35.,0.,         223P    265
132.,35.,2.,132.,32.,0.,132.,32.,2.,0.,0.666666666666665,            223P    266
-3.14159265358979,3.14159265358979;                                  223P    267
128,1,8,1,2,0,1,0,0,1,0.,0.,1.33333333333333,1.33333333333333,       225P    268
-3.14159265358979,-3.14159265358979,-3.14159265358979,               225P    269
-1.5707963267949,-1.5707963267949,0.,0.,1.5707963267949,             225P    270
1.5707963267949,3.14159265358979,3.14159265358979,                   225P    271
3.14159265358979,1.,1.,0.707106781186548,0.707106781186548,1.,       225P    272
1.,0.707106781186548,0.707106781186548,1.,1.,0.707106781186548,      225P    273
0.707106781186548,1.,1.,0.707106781186548,0.707106781186548,1.,      225P    274
1.,153.5,55.,0.,153.5,55.,2.,153.5,53.5,0.,153.5,53.5,2.,155.,       225P    275
53.5,0.,155.,53.5,2.,156.5,53.5,0.,156.5,53.5,2.,156.5,55.,0.,       225P    276
156.5,55.,2.,156.5,56.5,0.,156.5,56.5,2.,155.,56.5,0.,155.,56.5,     225P    277
2.,153.5,56.5,0.,153.5,56.5,2.,153.5,55.,0.,153.5,55.,2.,0.,         225P    278
1.33333333333333,-3.14159265358979,3.14159265358979;                 225P    279
128,1,8,1,2,0,1,0,0,1,0.,0.,1.33333333333333,1.33333333333333,       227P    280
-3.14159265358979,-3.14159265358979,-3.14159265358979,               227P    281
-1.5707963267949,-1.5707963267949,0.,0.,1.5707963267949,             227P    282
1.5707963267949,3.14159265358979,3.14159265358979,                   227P    283
3.14159265358979,1.,1.,0.707106781186548,0.707106781186548,1.,       227P    284
1.,0.707106781186548,0.707106781186548,1.,1.,0.707106781186548,      227P    285
0.707106781186548,1.,1.,0.707106781186548,0.707106781186548,1.,      227P    286
1.,3.5,55.,0.,3.5,55.,2.,3.5,53.5,0.,3.5,53.5,2.,5.,53.5,0.,5.,      227P    287
53.5,2.,6.5,53.5,0.,6.5,53.5,2.,6.5,55.,0.,6.5,55.,2.,6.5,56.5,      227P    288
0.,6.5,56.5,2.,5.,56.5,0.,5.,56.5,2.,3.5,56.5,0.,3.5,56.5,2.,        227P    289
3.5,55.,0.,3.5,55.,2.,0.,1.33333333333333,-3.14159265358979,         227P    290
3.14159265358979;                                                    227P    291
128,1,8,1,2,0,1,0,0,1,0.,0.,1.33333333333333,1.33333333333333,       229P    292
-3.14159265358979,-3.14159265358979,-3.14159265358979,               229P    293
-1.5707963267949,-1.5707963267949,0.,0.,1.5707963267949,             229P    294
1.5707963267949,3.14159265358979,3.14159265358979,                   229P    295
3.14159265358979,1.,1.,0.707106781186548,0.707106781186548,1.,       229P    296
1.,0.707106781186548,0.707106781186548,1.,1.,0.707106781186548,      229P    297
0.707106781186548,1.,1.,0.707106781186548,0.707106781186548,1.,      229P    298
1.,3.5,5.,0.,3.5,5.,2.,3.5,3.5,0.,3.5,3.5,2.,5.,3.5,0.,5.,3.5,       229P    299
2.,6.5,3.5,0.,6.5,3.5,2.,6.5,5.,0.,6.5,5.,2.,6.5,6.5,0.,6.5,6.5,     229P    300
2.,5.,6.5,0.,5.,6.5,2.,3.5,6.5,0.,3.5,6.5,2.,3.5,5.,0.,3.5,5.,       229P    301
2.,0.,1.33333333333333,-3.14159265358979,3.14159265358979;           229P    302
128,1,8,1,2,0,1,0,0,1,0.,0.,1.33333333333333,1.33333333333333,       231P    303
-3.14159265358979,-3.14159265358979,-3.14159265358979,               231P    304
-1.5707963267949,-1.5707963267949,0.,0.,1.5707963267949,             231P    305
1.5707963267949,3.14159265358979,3.14159265358979,                   231P    306
3.14159265358979,1.,1.,0.707106781186548,0.707106781186548,1.,       231P    307
1.,0.707106781186548,0.707106781186548,1.,1.,0.707106781186548,      231P    308
0.707106781186548,1.,1.,0.707106781186548,0.707106781186548,1.,      231P    309
1.,153.5,5.,0.,153.5,5.,2.,153.5,3.5,0.,153.5,3.5,2.,155.,3.5,       231P    310
0.,155.,3.5,2.,156.5,3.5,0.,156.5,3.5,2.,156.5,5.,0.,156.5,5.,       231P    311
2.,156.5,6.5,0.,156.5,6.5,2.,155.,6.5,0.,155.,6.5,2.,153.5,6.5,      231P    312
0.,153.5,6.5,2.,153.5,5.,0.,153.5,5.,2.,0.,1.33333333333333,         231P    313
-3.14159265358979,3.14159265358979;                                  231P    314
128,1,1,1,1,0,0,1,0,0,-0.001,-0.001,16.001,16.001,-0.001,-0.001,     233P    315
0.201,0.201,1.,1.,1.,1.,160.01,60.,-0.01,-0.0100000000000122,        233P    316
60.,-0.01,160.01,60.,2.01,-0.0100000000000122,60.,2.01,-0.001,       233P    317
16.001,-0.001,0.201;                                                 233P    318
128,1,1,1,1,0,0,1,0,0,-0.001,-0.001,6.001,6.001,-0.001,-0.001,       235P    319
0.201,0.201,1.,1.,1.,1.,160.,-0.01,-0.01,160.,60.01,-0.01,160.,      235P    320
-0.01,2.01,160.,60.01,2.01,-0.001,6.001,-0.001,0.201;                235P    321
128,1,1,1,1,0,0,1,0,0,-0.001,-0.001,16.001,16.001,-0.001,-0.001,     237P    322
0.201,0.201,1.,1.,1.,1.,-0.01,0.,-0.01,160.01,0.,-0.01,-0.01,0.,     237P    323
2.01,160.01,0.,2.01,-0.001,16.001,-0.001,0.201;                      237P    324
128,1,1,1,1,0,0,1,0,0,-0.001,-0.001,6.001,6.001,-0.001,-0.001,       239P    325
0.201,0.201,1.,1.,1.,1.,0.,60.01,-0.01,0.,-0.0100000000000033,       239P    326
-0.01,0.,60.01,2.01,0.,-0.0100000000000033,2.01,-0.001,6.001,        239P    327
-0.001,0.201;                                                        239P    328
128,1,1,1,1,0,0,1,0,0,-8.001,-8.001,8.001,8.001,-3.001,-3.001,       241P    329
3.001,3.001,1.,1.,1.,1.,-0.00999999999999446,                        241P    330
-0.0099999999999989,2.,160.01,-0.0099999999999989,2.,                241P    331
-0.00999999999999446,60.01,2.,160.01,60.01,2.,-8.001,8.001,          241P    332
-3.001,3.001;                                                        241P    333
128,1,1,1,1,0,0,1,0,0,-8.001,-8.001,8.001,8.001,-3.001,-3.001,       243P    334
3.001,3.001,1.,1.,1.,1.,160.01,-0.0099999999999989,0.,               243P    335
-0.00999999999999446,-0.0099999999999989,0.,160.01,60.01,0.,         243P    336
-0.00999999999999446,60.01,0.,-8.001,8.001,-3.001,3.001;             243P    337
502,34,107.,41.,0.,107.,23.,0.,107.,23.,2.,107.,41.,2.,105.,43.,     245P    338
0.,105.,43.,2.,27.,43.,0.,27.,43.,2.,25.,41.,0.,25.,41.,2.,25.,      245P    339
23.,0.,25.,23.,2.,27.,21.,0.,27.,21.,2.,105.,21.,0.,105.,21.,2.,     245P    340
132.,32.,2.,132.,32.,0.,153.5,55.,2.,153.5,55.,0.,3.5,55.,2.,        245P    341
3.5,55.,0.,3.5,5.,2.,3.5,5.,0.,153.5,5.,2.,153.5,5.,0.,160.,60.,     245P    342
0.,0.,60.,0.,0.,60.,2.,160.,60.,2.,160.,0.,0.,160.,0.,2.,0.,0.,      245P    343
0.,0.,0.,2.;                                                         245P    344
504,51,105,245,1,245,2,107,245,2,245,3,109,245,4,245,3,111,245,      247P    345
1,245,4,113,245,5,245,1,115,245,6,245,4,117,245,5,245,6,119,245,     247P    346
7,245,5,121,245,8,245,6,123,245,7,245,8,125,245,9,245,7,127,245,     247P    347
10,245,8,129,245,9,245,10,131,245,11,245,9,133,245,12,245,10,        247P    348
135,245,11,245,12,137,245,13,245,11,139,245,14,245,12,141,245,       247P    349
13,245,14,143,245,15,245,13,145,245,16,245,14,147,245,15,245,16,     247P    350
149,245,2,245,15,151,245,3,245,16,153,245,17,245,17,155,245,17,      247P    351
245,18,157,245,18,245,18,159,245,19,245,19,161,245,19,245,20,        247P    352
163,245,20,245,20,165,245,21,245,21,167,245,21,245,22,169,245,       247P    353
22,245,22,171,245,23,245,23,173,245,23,245,24,175,245,24,245,24,     247P    354
177,245,25,245,25,179,245,25,245,26,181,245,26,245,26,183,245,       247P    355
27,245,28,185,245,28,245,29,187,245,30,245,29,189,245,27,245,30,     247P    356
191,245,31,245,27,193,245,32,245,30,195,245,31,245,32,197,245,       247P    357
33,245,31,199,245,34,245,32,201,245,33,245,34,203,245,28,245,33,     247P    358
205,245,29,245,34;                                                   247P    359
406,1,5HBody1;                                                       249P    360
314,81.5686274509804,81.5686274509804,81.5686274509804,12HLead -     251P    361
 Satin;                                                              251P    362
S      1G      3D    252P    362                                        T      1
