%
M48
M71
T01C0.600
T02C0.800
T03C0.900
T04C0.940
T05C1.016
T06C1.200
T07C2.997
T08C3.000
%
T01
X18339Y17866
X13894Y34376
X14529Y36281
X37389Y38186
X48184Y36916
X46279Y23581
T02
X41834Y24851
X38024Y24851
X32944Y23581
X32309Y21676
X27864Y23581
X20879Y21676
X27864Y35011
X32309Y38186
X32944Y35011
X38024Y36281
X41834Y36281
X20879Y38186
T03
X19569Y43266
X14569Y43266
X6274Y45766
X6274Y40766
X7544Y34336
X7544Y29336
X13974Y31836
X13974Y26756
X23974Y26756
X23974Y31836
X50724Y33066
X50724Y28066
T04
X44374Y40726
X40974Y40726
X37574Y40726
X34174Y40726
X30774Y40726
X27374Y40726
X29074Y45806
X32474Y45806
X35874Y45806
X39274Y45806
X42674Y45806
T05
X11354Y14056
X13894Y14056
X16434Y14056
X20244Y14056
X22784Y14056
X25324Y14056
X29134Y14056
X31674Y14056
X34214Y14056
T06
X39374Y14056
X39374Y19056
X44374Y19056
X49374Y19056
X49374Y14056
X44374Y14056
T07
X50724Y42631
X10719Y21676
T08
X10719Y21676
X50724Y42631
M30
